<svg width="100" height="100" viewBox="0 0 100 100" fill="none" xmlns="http://www.w3.org/2000/svg">
<g clip-path="url(#clip0_2127_15)">
<path d="M51.502 18.232L51.604 18.282L51.682 18.322L51.85 18.412L51.958 18.47L52.188 18.596L52.326 18.67L52.614 18.83L52.776 18.92L53.118 19.108L53.306 19.214L54.106 19.66L54.566 19.918L55.526 20.458L56.054 20.756L57.138 21.368L57.714 21.696L58.886 22.36L59.492 22.704L60.716 23.4L61.334 23.754L63.814 25.17L64.992 25.846L66.152 26.512L66.7 26.826L67.766 27.442L68.254 27.722L69.192 28.266L69.6 28.504L69.998 28.736L70.178 28.842L70.528 29.048L70.684 29.14L70.982 29.316L71.112 29.392L71.354 29.536L71.452 29.596L71.634 29.708L71.7 29.75L71.818 29.824L71.85 29.846L72.4 30.228V35.914L72.396 37.056L72.39 37.782L72.386 38.122L72.376 38.784L72.37 39.088L72.358 39.672L72.35 39.93L72.334 40.42L72.324 40.626L72.306 41.006L72.296 41.152L72.276 41.408L72.264 41.484L72.242 41.6H72.23L72.09 41.538L71.896 41.44L71.756 41.364L71.442 41.194L71.248 41.086L70.83 40.854L70.588 40.718L70.082 40.434L69.8 40.274L69.218 39.944L68.904 39.764L68.262 39.398L67.924 39.202L67.236 38.806L66.88 38.6L65.836 37.998L65.17 37.614L64.856 37.436L64.244 37.086L63.962 36.926L63.418 36.618L63.176 36.482L62.716 36.222L62.52 36.114L62.156 35.912L62.016 35.836L61.764 35.702L61.684 35.662L61.558 35.6H61.548L61.518 35.73L61.5 35.94L61.492 36.102L61.478 36.46L61.472 36.688L61.46 37.178L61.454 37.466L61.446 38.068L61.444 38.406L61.44 39.104L61.438 39.484V40.262L61.44 40.674L61.444 41.514L61.448 41.95L61.5 48.3L72.406 48.406L72.3 58.5L66.85 58.554L61.4 58.606V77.616L62.25 77.126L63.914 76.166L65.058 75.51L65.628 75.182L66.762 74.534L67.306 74.222L68.378 73.612L68.87 73.332L69.822 72.79L70.234 72.556L70.636 72.33L70.818 72.228L71.166 72.03L71.318 71.946L71.61 71.782L71.73 71.716L71.954 71.59L72.04 71.544L72.192 71.462L72.238 71.438L72.312 71.4H72.316L72.342 71.522L72.356 71.72L72.362 71.868L72.374 72.198L72.378 72.406L72.386 72.85L72.39 73.106L72.396 73.64V73.934L72.4 74.538V74.858L72.398 76.188L72.394 76.874L72.384 78.252L72.376 78.902L72.366 79.542L72.36 79.84L72.35 80.424L72.342 80.688L72.33 81.194L72.322 81.41L72.308 81.818L72.3 81.978L72.284 82.266L72.274 82.36L72.256 82.508L72.246 82.522L72.178 82.574L72.082 82.636L72.008 82.682L71.844 82.78L71.74 82.842L71.514 82.974L71.38 83.052L71.096 83.216L70.934 83.31L70.596 83.504L70.406 83.61L70.016 83.832L69.802 83.952L69.364 84.2L69.13 84.332L68.142 84.886L67.59 85.192L66.452 85.828L65.834 86.17L64.572 86.868L63.904 87.236L62.544 87.986L61.84 88.372L60.442 89.138L59.774 89.502L58.458 90.22L57.84 90.558L56.632 91.214L56.08 91.514L55.01 92.092L54.536 92.346L54.074 92.596L53.86 92.71L53.444 92.934L53.254 93.036L52.886 93.232L52.722 93.318L52.408 93.484L52.272 93.556L52.014 93.69L51.908 93.746L51.712 93.848L51.636 93.886L51.504 93.952L51.462 93.97L51.396 94H51.39L51.378 93.958L51.372 93.89L51.368 93.834L51.36 93.712L51.358 93.63L51.35 93.452L51.348 93.342L51.334 92.854L51.328 92.532L51.316 91.834L51.31 91.408L51.298 90.506L51.292 89.98L51.282 88.878L51.278 88.252L51.268 86.954L51.264 86.234L51.254 84.746L51.25 83.932L51.242 82.256L51.24 81.35L51.232 79.494L51.23 78.5L51.224 76.466L51.22 75.384L51.216 73.178L51.214 72.014L51.21 69.64L51.208 68.392L51.206 65.856L51.204 64.528L51.202 61.834V60.428V57.58V56.1V53.542V51.888V51.088V49.502V48.734L51.204 47.214V46.48L51.206 45.026V44.324L51.208 42.936V42.266L51.21 40.942V40.304L51.212 39.042L51.214 38.436L51.216 37.236V36.66L51.22 35.522V34.976L51.224 33.898V33.382L51.228 32.364L51.23 31.876L51.232 30.916L51.234 30.458L51.238 29.556L51.24 29.126L51.244 28.28L51.246 27.878L51.25 27.086L51.252 26.712L51.256 25.976L51.26 25.628L51.264 24.946L51.266 24.624L51.278 23.392L51.282 22.852L51.294 21.824L51.302 21.384L51.314 20.552L51.322 20.208L51.336 19.566L51.344 19.312L51.36 18.852L51.37 18.686L51.386 18.4L51.396 18.32L51.416 18.2H51.426M48.806 18.342L48.828 18.422L48.838 18.482L48.858 18.612L48.868 18.7L48.884 18.886L48.892 19.004L48.908 19.254L48.914 19.404L48.928 19.724L48.934 19.91L48.944 20.304L48.95 20.53L48.958 21.004L48.962 21.274L48.97 21.834L48.974 22.148L48.98 22.802L48.982 23.164L48.988 23.916L48.99 24.332L48.992 25.188L48.994 25.658L48.996 26.624L48.998 27.152L49 28.236V28.824V30.03V43.206L44.05 43.154L39.1 43.1L39.046 39.33L39.028 38.194L39.014 37.566L39.006 37.31L38.99 36.838L38.98 36.654L38.96 36.316L38.946 36.19L38.918 35.968L38.902 35.894L38.864 35.766L38.84 35.73L38.792 35.676L38.762 35.672H38.7L38.662 35.686L38.468 35.786L38.22 35.922L38.04 36.022L37.648 36.24L37.406 36.378L36.888 36.67L36.59 36.84L35.966 37.196L35.622 37.392L34.91 37.8L34.526 38.02L33.744 38.47L33.332 38.708L32.498 39.188L32.068 39.438L25.8 43.064V48.4H49V71.2L48.998 74.3L48.996 75.78L48.994 77.248V77.96L48.99 79.37L48.988 80.052L48.984 81.398L48.982 82.044L48.976 83.316L48.974 83.922L48.968 85.116L48.966 85.678L48.96 86.782L48.956 87.298L48.948 88.306L48.946 88.772L48.938 89.676L48.934 90.086L48.926 90.88L48.922 91.232L48.912 91.904L48.908 92.194L48.9 92.74L48.894 92.962L48.886 93.372L48.88 93.524L48.87 93.792L48.866 93.87L48.856 93.988H48.85L48.75 93.94L48.598 93.862L48.484 93.8L48.226 93.664L48.06 93.574L47.704 93.382L47.49 93.266L47.038 93.022L46.78 92.882L46.24 92.59L45.938 92.426L45.316 92.086L44.974 91.902L44.274 91.52L43.898 91.314L43.126 90.892L42.714 90.668L41.876 90.21L41.434 89.968L40.536 89.476L40.066 89.218L39.114 88.698L38.618 88.426L36.592 87.314L35.518 86.724L33.334 85.526L32.2 84.902L15.7 75.828L15.648 69.914L15.594 64H25.8V66.976L25.804 67.72L25.81 68.162L25.814 68.354L25.824 68.724L25.832 68.884L25.848 69.184L25.858 69.312L25.878 69.55L25.892 69.648L25.92 69.826L25.936 69.894L26.006 70.114L26.05 70.15L26.268 70.292L26.536 70.456L26.724 70.568L27.136 70.81L27.386 70.958L27.914 71.266L28.216 71.44L28.84 71.8L29.18 71.996L29.876 72.396L30.244 72.608L31.76 73.472L32.536 73.914L34.09 74.794L34.816 75.204L35.53 75.606L35.864 75.794L36.514 76.156L36.806 76.32L37.366 76.632L37.606 76.762L38.056 77.01L38.23 77.104L38.546 77.272L38.644 77.322L38.802 77.4H38.814L38.834 77.356L38.848 77.286L38.854 77.23L38.866 77.102L38.872 77.02L38.884 76.84L38.89 76.73L38.912 76.242L38.922 75.924L38.94 75.24L38.95 74.83L38.964 73.966L38.97 73.47L38.982 72.44L38.986 71.866L38.994 70.68L38.996 70.036L39 68.712V58.604L27.35 58.552L15.7 58.5L15.648 47.898L15.596 37.296L21.448 33.91L23.452 32.752L24.848 31.944L25.57 31.528L28.514 29.83L30.024 28.962L33.054 27.218L34.54 26.364L36.018 25.514L36.74 25.1L38.166 24.28L38.854 23.886L40.208 23.11L40.85 22.742L42.11 22.02L42.696 21.684L43.838 21.032L44.358 20.736L45.36 20.162L45.8 19.912L46.642 19.432L46.994 19.232L47.334 19.04L47.484 18.954L47.776 18.79L47.902 18.718L48.14 18.584L48.238 18.53L48.422 18.428L48.492 18.388L48.616 18.32L48.656 18.298L48.722 18.264L48.73 18.26M84.726 62.114L84.7 75.826L79.66 78.59L78.646 79.144L78 79.492L77.696 79.654L77.102 79.97L76.83 80.114L76.302 80.39L76.07 80.51L75.624 80.738L75.436 80.832L75.086 81.006L74.952 81.068L74.71 81.18L74.636 81.21L74.518 81.252L74.51 81.244L74.5 81.148L74.492 81L74.488 80.888L74.482 80.636L74.478 80.472L74.47 80.12L74.468 79.91L74.462 79.464L74.458 79.208L74.452 78.676L74.448 78.378L74.444 77.762L74.44 77.424L74.434 76.732L74.432 76.358L74.428 75.594L74.426 75.188L74.42 74.358L74.418 73.92L74.416 73.03L74.414 72.564L74.41 71.62L74.408 71.13L74.404 69.12L74.402 68.056L74.4 65.892V48.4H84.752M74.646 31.462L74.834 31.56L74.972 31.634L75.272 31.8L75.46 31.904L75.856 32.126L76.082 32.256L76.556 32.524L76.816 32.672L77.348 32.976L77.632 33.138L78.798 33.81L79.402 34.162L80.612 34.864L81.184 35.198L81.746 35.528L82.01 35.684L82.526 35.988L82.76 36.128L83.21 36.396L83.406 36.512L83.774 36.734L83.92 36.824L84.188 36.99L84.278 37.048L84.426 37.144L84.45 37.166L84.632 37.416L84.676 37.538L84.694 37.618L84.726 37.788L84.738 37.898L84.76 38.132L84.768 38.278L84.784 38.59L84.788 38.78L84.796 39.182L84.798 39.424L84.8 39.932V43H74.4V37.2L74.402 36.034L74.406 35.294L74.408 34.948L74.414 34.272L74.418 33.962L74.428 33.366L74.432 33.104L74.442 32.604L74.448 32.394L74.46 32.004L74.466 31.858L74.48 31.596L74.486 31.518L74.502 31.4H74.508M99.15 35.276L96.96 36.532L96.246 36.936L95.906 37.126L95.242 37.496L94.938 37.664L94.354 37.988L94.1 38.126L93.622 38.384L93.432 38.484L93.09 38.664L92.98 38.718L92.88 38.764L92.848 38.778L92.794 38.8H92.786L92.7 38.76L92.576 38.694L92.48 38.642L92.27 38.526L92.134 38.45L91.844 38.286L91.67 38.188L91.302 37.98L91.09 37.86L90.652 37.608L90.406 37.47L89.9 37.18L89.622 37.02L89.054 36.694L88.748 36.518L88.12 36.158L87.786 35.966L87.106 35.574L86.748 35.368L85.266 34.514L84.464 34.05L82.82 33.098L81.95 32.594L80.182 31.568L79.262 31.034L75.77 29.004L73.55 27.716L72.498 27.104L70.426 25.902L69.446 25.332L67.524 24.216L66.618 23.692L64.842 22.662L64.012 22.18L62.384 21.238L61.628 20.8L60.15 19.944L59.466 19.548L58.138 18.78L57.53 18.428L56.35 17.748L55.816 17.44L54.786 16.846L54.328 16.582L53.448 16.074L53.064 15.854L52.334 15.436L52.024 15.26L51.444 14.928L51.212 14.796L50.782 14.554L50.624 14.466L50.346 14.31L50.262 14.266L50.134 14.2H50.128L50.074 14.224L49.998 14.264L49.94 14.296L49.81 14.366L49.726 14.414L49.544 14.514L49.436 14.576L49.204 14.706L49.07 14.782L48.79 14.94L48.634 15.03L47.958 15.414L47.552 15.644L46.7 16.132L46.214 16.412L45.198 16.994L44.634 17.318L43.468 17.988L42.832 18.354L41.53 19.106L40.83 19.508L39.402 20.332L38.644 20.77L37.104 21.66L36.296 22.126L34.656 23.076L33.802 23.568L32.074 24.568L31.182 25.086L29.382 26.128L28.458 26.664L26.594 27.744L25.644 28.296L21.8 30.528L19.834 31.67L17.368 33.102L15.796 34.012L15.06 34.438L13.62 35.27L12.962 35.65L12.314 36.022L12.008 36.198L11.406 36.544L11.124 36.706L10.574 37.022L10.32 37.166L9.826 37.45L9.6 37.578L9.164 37.826L8.97 37.936L8.598 38.146L8.438 38.238L8.134 38.408L8.01 38.478L7.778 38.606L7.69 38.654L7.536 38.738L7.488 38.764L7.414 38.8H7.408L7.302 38.758L7.164 38.69L7.064 38.64L6.846 38.526L6.712 38.454L6.428 38.302L6.264 38.212L5.562 37.828L5.16 37.606L4.332 37.144L3.904 36.904L3.048 36.422L2.644 36.192L1.862 35.744L1.532 35.552L1.216 35.368L1.08 35.288L0.823999 35.136L0.721999 35.074L0.536 34.96L0.476 34.92L0.376 34.852L0.362 34.838L0.414 34.764L0.526 34.67L0.618 34.604L0.823999 34.458L0.96 34.368L1.248 34.178L1.42 34.068L1.782 33.838L1.986 33.712L2.412 33.45L2.644 33.31L3.62 32.726L4.162 32.41L5.92 31.384L7.176 30.648L7.794 30.284L9.016 29.564L9.564 29.24L10.096 28.924L10.338 28.782L10.8 28.506L11 28.386L11.386 28.158L11.73 27.956L11.942 27.83L12.392 27.568L12.654 27.414L13.204 27.092L13.514 26.912L14.158 26.538L14.512 26.332L15.24 25.908L15.634 25.68L16.442 25.21L16.874 24.96L17.754 24.45L18.218 24.18L19.162 23.632L19.658 23.346L20.66 22.766L21.18 22.464L23.312 21.232L24.438 20.58L26.724 19.26L27.906 18.578L30.29 17.202L31.5 16.504L35.046 14.46L37.31 13.154L38.374 12.54L39.426 11.932L39.934 11.64L40.932 11.064L41.41 10.788L42.35 10.246L42.796 9.98999L43.67 9.48599L44.08 9.24799L44.882 8.78599L45.254 8.57199L45.978 8.15399L46.31 7.96399L46.95 7.59399L47.236 7.42799L47.786 7.11199L48.024 6.97399L48.478 6.71199L48.666 6.60399L49.016 6.40199L49.15 6.32399L49.39 6.18599L49.468 6.13999L49.594 6.06799L49.612 6.05799L49.82 5.98599H49.914L49.974 5.99599L50.102 6.02399L50.186 6.05199L50.364 6.11599L50.478 6.16399L50.722 6.26999L50.872 6.34399L51.194 6.50199L51.39 6.60199L51.804 6.81799L52.05 6.95199L52.57 7.23399L52.876 7.40199L53.516 7.75799L53.886 7.96599L54.66 8.40399L55.102 8.65599L56.024 9.17999L56.546 9.47999L57.63 10.1L58.238 10.45L58.858 10.806L59.184 10.994L59.848 11.376L60.2 11.578L60.912 11.99L61.286 12.206L62.05 12.646L62.45 12.878L63.264 13.346L63.69 13.594L64.558 14.094L65.012 14.356L67.776 15.952L69.49 16.942L70.29 17.404L71.85 18.306L72.58 18.728L74.004 19.552L74.672 19.938L75.978 20.694L76.594 21.05L77.8 21.748L78.37 22.078L79.492 22.73L80.028 23.04L81.084 23.654L81.594 23.95L83.588 25.108L84.554 25.672L86.476 26.794L87.458 27.368L88.446 27.946L88.956 28.244L89.984 28.846L90.518 29.16L91.604 29.796L92.172 30.13L93.332 30.81L93.944 31.17L95.122 31.858L95.87 32.296L96.222 32.502L96.91 32.902L97.224 33.084L97.834 33.436L98.104 33.592L98.618 33.888L98.834 34.012L99.238 34.242L99.392 34.33L99.67 34.484L99.754 34.53L99.888 34.6H99.894L99.906 34.51L99.912 34.362L99.916 34.246L99.922 33.988L99.926 33.818L99.932 33.454L99.936 33.234L99.942 32.772L99.944 32.504L99.95 31.946L99.954 31.636L99.96 30.99L99.962 30.636L99.966 29.91L99.97 29.518L99.974 28.716L99.976 28.288L99.98 27.416L99.982 26.956L99.986 26.018L99.988 25.528L99.99 24.534L99.992 24.018L99.996 21.898L99.998 20.776L100 18.49V34.784L99.15 35.276Z" fill="white"/>
</g>
<defs>
<clipPath id="clip0_2127_15">
<rect width="100" height="100" fill="white"/>
</clipPath>
</defs>
</svg>
